<svg width="41" height="16" viewBox="0 0 41 16" fill="none" xmlns="http://www.w3.org/2000/svg">
<g clip-path="url(#clip0_2_37)">
<path d="M8 0C6.41775 0 4.87103 0.469192 3.55544 1.34824C2.23985 2.22729 1.21447 3.47672 0.608967 4.93853C0.00346625 6.40034 -0.15496 8.00887 0.153721 9.56072C0.462403 11.1126 1.22433 12.538 2.34315 13.6569C3.46197 14.7757 4.88743 15.5376 6.43928 15.8463C7.99113 16.155 9.59966 15.9965 11.0615 15.391C12.5233 14.7855 13.7727 13.7602 14.6518 12.4446C15.5308 11.129 16 9.58225 16 8C15.9978 5.87895 15.1542 3.84542 13.6544 2.34562C12.1546 0.845814 10.121 0.00223986 8 0ZM8 14.7692C6.66117 14.7692 5.35241 14.3722 4.23922 13.6284C3.12603 12.8846 2.2584 11.8274 1.74605 10.5905C1.2337 9.35356 1.09965 7.99249 1.36084 6.67939C1.62203 5.36629 2.26674 4.16012 3.21343 3.21343C4.16013 2.26674 5.36629 1.62203 6.67939 1.36084C7.99249 1.09965 9.35356 1.2337 10.5905 1.74605C11.8274 2.25839 12.8846 3.12602 13.6284 4.23922C14.3722 5.35241 14.7692 6.66117 14.7692 8C14.7672 9.79468 14.0534 11.5153 12.7843 12.7843C11.5153 14.0534 9.79469 14.7672 8 14.7692ZM11.0769 9.53846C11.0769 10.1097 10.85 10.6575 10.4461 11.0615C10.0422 11.4654 9.49431 11.6923 8.92308 11.6923H8.61539V12.3077C8.61539 12.4709 8.55055 12.6274 8.43514 12.7428C8.31974 12.8582 8.16321 12.9231 8 12.9231C7.83679 12.9231 7.68027 12.8582 7.56486 12.7428C7.44945 12.6274 7.38462 12.4709 7.38462 12.3077V11.6923H6.15385C5.99064 11.6923 5.83411 11.6275 5.71871 11.5121C5.6033 11.3967 5.53846 11.2401 5.53846 11.0769C5.53846 10.9137 5.6033 10.7572 5.71871 10.6418C5.83411 10.5264 5.99064 10.4615 6.15385 10.4615H8.92308C9.16789 10.4615 9.40268 10.3643 9.57579 10.1912C9.7489 10.0181 9.84615 9.78327 9.84615 9.53846C9.84615 9.29364 9.7489 9.05886 9.57579 8.88575C9.40268 8.71264 9.16789 8.61538 8.92308 8.61538H7.07692C6.50569 8.61538 5.95785 8.38846 5.55393 7.98454C5.15 7.58061 4.92308 7.03277 4.92308 6.46154C4.92308 5.8903 5.15 5.34246 5.55393 4.93854C5.95785 4.53461 6.50569 4.30769 7.07692 4.30769H7.38462V3.69231C7.38462 3.5291 7.44945 3.37257 7.56486 3.25716C7.68027 3.14176 7.83679 3.07692 8 3.07692C8.16321 3.07692 8.31974 3.14176 8.43514 3.25716C8.55055 3.37257 8.61539 3.5291 8.61539 3.69231V4.30769H9.84615C10.0094 4.30769 10.1659 4.37253 10.2813 4.48793C10.3967 4.60334 10.4615 4.75987 10.4615 4.92308C10.4615 5.08629 10.3967 5.24281 10.2813 5.35822C10.1659 5.47363 10.0094 5.53846 9.84615 5.53846H7.07692C6.83211 5.53846 6.59732 5.63571 6.42421 5.80882C6.2511 5.98193 6.15385 6.21672 6.15385 6.46154C6.15385 6.70635 6.2511 6.94114 6.42421 7.11425C6.59732 7.28736 6.83211 7.38461 7.07692 7.38461H8.92308C9.49431 7.38461 10.0422 7.61154 10.4461 8.01546C10.85 8.41938 11.0769 8.96722 11.0769 9.53846Z" fill="#0AD1E3"/>
<path d="M18 6.62172V2.36717H20.5039V3.18311H18.7885V4.12727H20.3654V4.94321H18.7991V6.62172H18Z" fill="white"/>
<path d="M21.1944 6.62172V5.82909H22.2066V4.20304H21.3275V3.41624H22.9524V5.82909H23.8048V6.62172H21.1944ZM22.5262 2.90919C22.3806 2.90919 22.2634 2.86839 22.1746 2.7868C22.0894 2.70521 22.0467 2.59447 22.0467 2.4546C22.0467 2.31472 22.0894 2.20399 22.1746 2.12239C22.2634 2.0408 22.3806 2 22.5262 2C22.6718 2 22.7872 2.0408 22.8725 2.12239C22.9613 2.20399 23.0057 2.31472 23.0057 2.4546C23.0057 2.59447 22.9613 2.70521 22.8725 2.7868C22.7872 2.86839 22.6718 2.90919 22.5262 2.90919Z" fill="white"/>
<path d="M24.3674 6.62172V3.41624H25.1399V4.02819H25.3743L25.1399 4.23218C25.1399 3.9602 25.2109 3.7465 25.353 3.59108C25.495 3.43567 25.6868 3.35796 25.9283 3.35796C26.2125 3.35796 26.4398 3.46675 26.6102 3.68433C26.7843 3.90192 26.8713 4.19138 26.8713 4.55273V6.62172H26.0722V4.64015C26.0722 4.47308 26.0313 4.34486 25.9496 4.25549C25.8715 4.16224 25.7596 4.11562 25.614 4.11562C25.4719 4.11562 25.3618 4.16224 25.2837 4.25549C25.2056 4.34486 25.1665 4.47308 25.1665 4.64015V6.62172H24.3674Z" fill="white"/>
<path d="M28.4301 6.68C28.1353 6.68 27.9009 6.59258 27.7269 6.41773C27.5564 6.24289 27.4712 6.00588 27.4712 5.7067C27.4712 5.38421 27.5724 5.13748 27.7748 4.96653C27.9808 4.79168 28.2756 4.70426 28.6592 4.70426H29.2665V4.46531C29.2665 4.34097 29.2257 4.24189 29.144 4.16807C29.0659 4.09425 28.9593 4.05733 28.8243 4.05733C28.7 4.05733 28.597 4.08842 28.5154 4.15059C28.4337 4.21275 28.3839 4.29823 28.3662 4.40702H27.5937C27.6257 4.08453 27.7535 3.83004 27.9773 3.64354C28.2046 3.45315 28.4958 3.35796 28.851 3.35796C29.2239 3.35796 29.5187 3.45898 29.7353 3.66102C29.9555 3.85918 30.0656 4.12727 30.0656 4.46531V6.62172H29.2932V6.09719H29.1653L29.2985 5.8932C29.2985 6.1341 29.2186 6.32643 29.0588 6.47019C28.9025 6.61006 28.6929 6.68 28.4301 6.68ZM28.7285 6.0389C28.8847 6.0389 29.0126 5.99422 29.112 5.90486C29.215 5.81161 29.2665 5.69116 29.2665 5.54351V5.19965H28.6752C28.5544 5.19965 28.4568 5.23851 28.3822 5.31621C28.3076 5.39004 28.2703 5.48912 28.2703 5.61345C28.2703 5.74555 28.3111 5.85046 28.3928 5.92817C28.4745 6.00199 28.5864 6.0389 28.7285 6.0389Z" fill="white"/>
<path d="M30.7561 6.62172V3.41624H31.5286V4.02819H31.763L31.5286 4.23218C31.5286 3.9602 31.5996 3.7465 31.7417 3.59108C31.8837 3.43567 32.0755 3.35796 32.317 3.35796C32.6012 3.35796 32.8285 3.46675 32.9989 3.68433C33.173 3.90192 33.26 4.19138 33.26 4.55273V6.62172H32.4609V4.64015C32.4609 4.47308 32.42 4.34486 32.3383 4.25549C32.2602 4.16224 32.1483 4.11562 32.0027 4.11562C31.8607 4.11562 31.7506 4.16224 31.6724 4.25549C31.5943 4.34486 31.5552 4.47308 31.5552 4.64015V6.62172H30.7561Z" fill="white"/>
<path d="M35.2131 6.68C34.9538 6.68 34.7265 6.62755 34.5311 6.52264C34.3358 6.41385 34.1849 6.26426 34.0783 6.07387C33.9718 5.8796 33.9185 5.65425 33.9185 5.39781V4.64015C33.9185 4.37983 33.9718 4.15447 34.0783 3.96408C34.1849 3.7737 34.3358 3.62605 34.5311 3.52115C34.7265 3.41235 34.9538 3.35796 35.2131 3.35796C35.6002 3.35796 35.9092 3.46481 36.14 3.67851C36.3709 3.8922 36.4934 4.18361 36.5076 4.55273H35.7085C35.6978 4.41674 35.6481 4.30989 35.5593 4.23218C35.4741 4.15447 35.3587 4.11562 35.2131 4.11562C35.0532 4.11562 34.9307 4.1603 34.8455 4.24966C34.7602 4.33903 34.7176 4.46919 34.7176 4.64015V5.39781C34.7176 5.56488 34.7602 5.69504 34.8455 5.78829C34.9307 5.87766 35.0532 5.92234 35.2131 5.92234C35.3587 5.92234 35.4741 5.88543 35.5593 5.81161C35.6481 5.7339 35.6978 5.62511 35.7085 5.48523H36.5076C36.4934 5.85435 36.3709 6.14575 36.14 6.35945C35.9092 6.57315 35.6002 6.68 35.2131 6.68Z" fill="white"/>
<path d="M38.3968 6.68C38.1375 6.68 37.9102 6.62755 37.7148 6.52264C37.5231 6.41385 37.3739 6.26426 37.2673 6.07387C37.1643 5.8796 37.1129 5.65425 37.1129 5.39781V4.64015C37.1129 4.38371 37.1643 4.1603 37.2673 3.96991C37.3739 3.77564 37.5231 3.62605 37.7148 3.52115C37.9102 3.41235 38.1375 3.35796 38.3968 3.35796C38.656 3.35796 38.8798 3.41235 39.068 3.52115C39.2598 3.62605 39.4072 3.77564 39.5102 3.96991C39.6167 4.1603 39.67 4.38371 39.67 4.64015V5.22296H37.8747V5.39781C37.8747 5.59985 37.9191 5.75332 38.0079 5.85823C38.0966 5.95925 38.2298 6.00976 38.4074 6.00976C38.5317 6.00976 38.6312 5.98645 38.7057 5.93983C38.7839 5.8932 38.8354 5.82909 38.8602 5.7475H39.6434C39.5794 6.02725 39.4338 6.2526 39.2065 6.42356C38.9828 6.59452 38.7128 6.68 38.3968 6.68ZM38.9082 4.7742V4.62849C38.9082 4.43034 38.8656 4.2788 38.7803 4.1739C38.6986 4.06899 38.5708 4.01654 38.3968 4.01654C38.2227 4.01654 38.0913 4.07093 38.0025 4.17973C37.9173 4.28852 37.8747 4.44199 37.8747 4.64015V4.72757L38.9615 4.71592L38.9082 4.7742Z" fill="white"/>
<path d="M18 13V8.98901H18.9071V9.56593H19.126L18.9071 9.75824C18.9071 9.49817 18.9884 9.2967 19.151 9.15385C19.3137 9.00733 19.5368 8.93407 19.8204 8.93407C20.1665 8.93407 20.4438 9.04212 20.6524 9.25824C20.8609 9.4707 20.9651 9.75641 20.9651 10.1154V10.8846C20.9651 11.1227 20.9172 11.3315 20.8213 11.511C20.7295 11.6868 20.5981 11.8242 20.4272 11.9231C20.2562 12.0183 20.0539 12.0659 19.8204 12.0659C19.5368 12.0659 19.3137 11.9945 19.151 11.8516C18.9884 11.7051 18.9071 11.5018 18.9071 11.2418L19.126 11.4341H18.9071L18.9383 12.1758V13H18ZM19.4826 11.3516C19.6577 11.3516 19.7912 11.3095 19.8829 11.2253C19.9788 11.1374 20.0268 11.0147 20.0268 10.8571V10.1429C20.0268 9.98168 19.9788 9.85897 19.8829 9.77473C19.7912 9.69048 19.6577 9.64835 19.4826 9.64835C19.3116 9.64835 19.1781 9.69231 19.0822 9.78022C18.9863 9.86447 18.9383 9.98535 18.9383 10.1429V10.8571C18.9383 11.0147 18.9863 11.1374 19.0822 11.2253C19.1781 11.3095 19.3116 11.3516 19.4826 11.3516Z" fill="white"/>
<path d="M23.7777 12.011C23.5358 12.011 23.3231 11.967 23.1396 11.8791C22.9561 11.7875 22.8123 11.6612 22.708 11.5C22.6079 11.3388 22.5579 11.152 22.5579 10.9396V8.74176H21.4944V8H23.4962V10.9396C23.4962 11.0385 23.5296 11.119 23.5963 11.1813C23.6672 11.2399 23.7589 11.2692 23.8715 11.2692H24.8724V12.011H23.7777Z" fill="white"/>
<path d="M26.5214 12.0659C26.1753 12.0659 25.9001 11.9835 25.6957 11.8187C25.4955 11.6538 25.3954 11.4304 25.3954 11.1484C25.3954 10.8443 25.5143 10.6117 25.752 10.4505C25.9939 10.2857 26.34 10.2033 26.7904 10.2033H27.5036V9.97802C27.5036 9.86081 27.4556 9.7674 27.3597 9.6978C27.2679 9.62821 27.1428 9.59341 26.9844 9.59341C26.8384 9.59341 26.7175 9.62271 26.6215 9.68132C26.5256 9.73993 26.4672 9.82051 26.4464 9.92308H25.5393C25.5769 9.61905 25.727 9.37912 25.9897 9.2033C26.2566 9.02381 26.5986 8.93407 27.0156 8.93407C27.4535 8.93407 27.7997 9.0293 28.0541 9.21978C28.3126 9.40659 28.4419 9.65934 28.4419 9.97802V12.011H27.5349V11.5165H27.3847L27.5411 11.3242C27.5411 11.5513 27.4473 11.7326 27.2596 11.8681C27.0761 12 26.8301 12.0659 26.5214 12.0659ZM26.8718 11.4615C27.0553 11.4615 27.2054 11.4194 27.3222 11.3352C27.4431 11.2473 27.5036 11.1337 27.5036 10.9945V10.6703H26.8092C26.6674 10.6703 26.5527 10.707 26.4651 10.7802C26.3776 10.8498 26.3338 10.9432 26.3338 11.0604C26.3338 11.185 26.3817 11.2839 26.4777 11.3571C26.5736 11.4267 26.7049 11.4615 26.8718 11.4615Z" fill="white"/>
<path d="M29.2527 12.011V8.98901H30.1597V9.56593H30.435L30.1597 9.75824C30.1597 9.50183 30.2432 9.30037 30.41 9.15385C30.5768 9.00733 30.802 8.93407 31.0856 8.93407C31.4192 8.93407 31.6861 9.03663 31.8863 9.24176C32.0906 9.44689 32.1928 9.71978 32.1928 10.0604V12.011H31.2545V10.1429C31.2545 9.98535 31.2065 9.86447 31.1106 9.78022C31.0188 9.69231 30.8875 9.64835 30.7165 9.64835C30.5497 9.64835 30.4204 9.69231 30.3286 9.78022C30.2369 9.86447 30.191 9.98535 30.191 10.1429V12.011H29.2527Z" fill="white"/>
<path d="M33.9982 11.5165V10.5824H32.9348V9.81319H33.9982V8.87912H34.9366V9.81319H36V10.5824H34.9366V11.5165H33.9982Z" fill="#0AD1E3"/>
</g>
<defs>
<clipPath id="clip0_2_37">
<rect width="41" height="16" fill="white"/>
</clipPath>
</defs>
</svg>
