<svg width="125" height="20" viewBox="0 0 125 20" fill="none" xmlns="http://www.w3.org/2000/svg">
<path d="M8 0C6.41775 0 4.87103 0.469192 3.55544 1.34824C2.23985 2.22729 1.21447 3.47672 0.608967 4.93853C0.00346625 6.40034 -0.15496 8.00887 0.153721 9.56072C0.462403 11.1126 1.22433 12.538 2.34315 13.6569C3.46197 14.7757 4.88743 15.5376 6.43928 15.8463C7.99113 16.155 9.59966 15.9965 11.0615 15.391C12.5233 14.7855 13.7727 13.7602 14.6518 12.4446C15.5308 11.129 16 9.58225 16 8C15.9978 5.87895 15.1542 3.84542 13.6544 2.34562C12.1546 0.845814 10.121 0.00223986 8 0ZM8 14.7692C6.66117 14.7692 5.35241 14.3722 4.23922 13.6284C3.12603 12.8846 2.2584 11.8274 1.74605 10.5905C1.2337 9.35356 1.09965 7.99249 1.36084 6.67939C1.62203 5.36629 2.26674 4.16012 3.21343 3.21343C4.16013 2.26674 5.36629 1.62203 6.67939 1.36084C7.99249 1.09965 9.35356 1.2337 10.5905 1.74605C11.8274 2.25839 12.8846 3.12602 13.6284 4.23922C14.3722 5.35241 14.7692 6.66117 14.7692 8C14.7672 9.79468 14.0534 11.5153 12.7843 12.7843C11.5153 14.0534 9.79469 14.7672 8 14.7692ZM11.0769 9.53846C11.0769 10.1097 10.85 10.6575 10.4461 11.0615C10.0422 11.4654 9.49431 11.6923 8.92308 11.6923H8.61539V12.3077C8.61539 12.4709 8.55055 12.6274 8.43514 12.7428C8.31974 12.8582 8.16321 12.9231 8 12.9231C7.83679 12.9231 7.68027 12.8582 7.56486 12.7428C7.44945 12.6274 7.38462 12.4709 7.38462 12.3077V11.6923H6.15385C5.99064 11.6923 5.83411 11.6275 5.71871 11.5121C5.6033 11.3967 5.53846 11.2401 5.53846 11.0769C5.53846 10.9137 5.6033 10.7572 5.71871 10.6418C5.83411 10.5264 5.99064 10.4615 6.15385 10.4615H8.92308C9.16789 10.4615 9.40268 10.3643 9.57579 10.1912C9.7489 10.0181 9.84615 9.78327 9.84615 9.53846C9.84615 9.29364 9.7489 9.05886 9.57579 8.88575C9.40268 8.71264 9.16789 8.61538 8.92308 8.61538H7.07692C6.50569 8.61538 5.95785 8.38846 5.55393 7.98454C5.15 7.58061 4.92308 7.03277 4.92308 6.46154C4.92308 5.8903 5.15 5.34246 5.55393 4.93854C5.95785 4.53461 6.50569 4.30769 7.07692 4.30769H7.38462V3.69231C7.38462 3.5291 7.44945 3.37257 7.56486 3.25716C7.68027 3.14176 7.83679 3.07692 8 3.07692C8.16321 3.07692 8.31974 3.14176 8.43514 3.25716C8.55055 3.37257 8.61539 3.5291 8.61539 3.69231V4.30769H9.84615C10.0094 4.30769 10.1659 4.37253 10.2813 4.48793C10.3967 4.60334 10.4615 4.75987 10.4615 4.92308C10.4615 5.08629 10.3967 5.24281 10.2813 5.35822C10.1659 5.47363 10.0094 5.53846 9.84615 5.53846H7.07692C6.83211 5.53846 6.59732 5.63571 6.42421 5.80882C6.2511 5.98193 6.15385 6.21672 6.15385 6.46154C6.15385 6.70635 6.2511 6.94114 6.42421 7.11425C6.59732 7.28736 6.83211 7.38461 7.07692 7.38461H8.92308C9.49431 7.38461 10.0422 7.61154 10.4461 8.01546C10.85 8.41938 11.0769 8.96722 11.0769 9.53846Z" fill="#0AD1E3"/>
<path d="M18.584 8.64209V8.49609C18.584 8.00098 18.6559 7.54183 18.7998 7.11865C18.9437 6.69124 19.151 6.32096 19.4219 6.00781C19.6927 5.69043 20.0207 5.44499 20.4058 5.27148C20.7909 5.09375 21.2225 5.00488 21.7007 5.00488C22.1831 5.00488 22.6169 5.09375 23.002 5.27148C23.3913 5.44499 23.7214 5.69043 23.9922 6.00781C24.2673 6.32096 24.4767 6.69124 24.6206 7.11865C24.7645 7.54183 24.8364 8.00098 24.8364 8.49609V8.64209C24.8364 9.13721 24.7645 9.59635 24.6206 10.0195C24.4767 10.4427 24.2673 10.813 23.9922 11.1304C23.7214 11.4435 23.3934 11.689 23.0083 11.8667C22.6274 12.0402 22.1958 12.127 21.7134 12.127C21.231 12.127 20.7972 12.0402 20.4121 11.8667C20.027 11.689 19.6969 11.4435 19.4219 11.1304C19.151 10.813 18.9437 10.4427 18.7998 10.0195C18.6559 9.59635 18.584 9.13721 18.584 8.64209ZM19.7583 8.49609V8.64209C19.7583 8.98486 19.7985 9.30859 19.8789 9.61328C19.9593 9.91374 20.0799 10.1803 20.2407 10.4131C20.4058 10.6458 20.611 10.8299 20.8564 10.9653C21.1019 11.0965 21.3875 11.1621 21.7134 11.1621C22.035 11.1621 22.3164 11.0965 22.5576 10.9653C22.8031 10.8299 23.0062 10.6458 23.167 10.4131C23.3278 10.1803 23.4484 9.91374 23.5288 9.61328C23.6134 9.30859 23.6558 8.98486 23.6558 8.64209V8.49609C23.6558 8.15755 23.6134 7.83805 23.5288 7.5376C23.4484 7.23291 23.3257 6.96419 23.1606 6.73145C22.9998 6.49447 22.7967 6.30827 22.5513 6.17285C22.3101 6.03743 22.0265 5.96973 21.7007 5.96973C21.3791 5.96973 21.0955 6.03743 20.8501 6.17285C20.6089 6.30827 20.4058 6.49447 20.2407 6.73145C20.0799 6.96419 19.9593 7.23291 19.8789 7.5376C19.7985 7.83805 19.7583 8.15755 19.7583 8.49609ZM27.4834 6.21094V12H26.3091V5.13184H27.4517L27.4834 6.21094ZM29.6289 5.09375L29.6226 6.18555C29.5252 6.16439 29.4321 6.15169 29.3433 6.14746C29.2586 6.139 29.1613 6.13477 29.0513 6.13477C28.7804 6.13477 28.5413 6.17708 28.334 6.26172C28.1266 6.34635 27.951 6.46484 27.8071 6.61719C27.6632 6.76953 27.549 6.9515 27.4644 7.16309C27.384 7.37044 27.3311 7.59896 27.3057 7.84863L26.9756 8.03906C26.9756 7.62435 27.0158 7.23503 27.0962 6.87109C27.1808 6.50716 27.3099 6.18555 27.4834 5.90625C27.6569 5.62272 27.877 5.40267 28.1436 5.24609C28.4144 5.08529 28.736 5.00488 29.1084 5.00488C29.193 5.00488 29.2904 5.01546 29.4004 5.03662C29.5104 5.05355 29.5866 5.07259 29.6289 5.09375ZM33.3359 11.1621C33.6152 11.1621 33.8734 11.105 34.1104 10.9907C34.3473 10.8765 34.542 10.7199 34.6943 10.521C34.8467 10.3179 34.9334 10.0872 34.9546 9.8291H36.0718C36.0506 10.2354 35.9131 10.6141 35.6592 10.9653C35.4095 11.3123 35.0815 11.5938 34.6753 11.8096C34.269 12.0212 33.8226 12.127 33.3359 12.127C32.8197 12.127 32.369 12.036 31.9839 11.854C31.603 11.672 31.2856 11.4224 31.0317 11.105C30.7821 10.7876 30.5938 10.4237 30.4668 10.0132C30.3441 9.59847 30.2827 9.16048 30.2827 8.69922V8.43262C30.2827 7.97135 30.3441 7.53548 30.4668 7.125C30.5938 6.71029 30.7821 6.34424 31.0317 6.02686C31.2856 5.70947 31.603 5.4598 31.9839 5.27783C32.369 5.09587 32.8197 5.00488 33.3359 5.00488C33.8734 5.00488 34.3431 5.11491 34.7451 5.33496C35.1471 5.55078 35.4624 5.84701 35.6909 6.22363C35.9237 6.59603 36.0506 7.01921 36.0718 7.49316H34.9546C34.9334 7.20964 34.853 6.95361 34.7134 6.7251C34.578 6.49658 34.3918 6.31462 34.1548 6.1792C33.922 6.03955 33.6491 5.96973 33.3359 5.96973C32.9762 5.96973 32.6737 6.04167 32.4282 6.18555C32.187 6.3252 31.9945 6.51562 31.8506 6.75684C31.7109 6.99382 31.6094 7.2583 31.5459 7.55029C31.4867 7.83805 31.457 8.13216 31.457 8.43262V8.69922C31.457 8.99967 31.4867 9.2959 31.5459 9.58789C31.6051 9.87988 31.7046 10.1444 31.8442 10.3813C31.9881 10.6183 32.1807 10.8088 32.4219 10.9526C32.6673 11.0923 32.972 11.1621 33.3359 11.1621ZM32.6885 12.0635H33.5327L33.4565 12.3999C33.702 12.4422 33.9242 12.5438 34.123 12.7046C34.3262 12.8654 34.4277 13.1299 34.4277 13.498C34.4277 13.6969 34.3854 13.8768 34.3008 14.0376C34.2204 14.2026 34.0998 14.3423 33.939 14.4565C33.7782 14.575 33.5771 14.666 33.3359 14.7295C33.099 14.793 32.8218 14.8247 32.5044 14.8247L32.46 14.1455C32.6546 14.1455 32.8302 14.1243 32.9868 14.082C33.1476 14.0397 33.2746 13.972 33.3677 13.8789C33.465 13.7858 33.5137 13.6652 33.5137 13.5171C33.5137 13.3774 33.4777 13.2674 33.4058 13.187C33.3338 13.1066 33.2217 13.0452 33.0693 13.0029C32.9212 12.9648 32.7287 12.9373 32.4917 12.9204L32.6885 12.0635ZM41.4419 10.8257V7.29004C41.4419 7.01921 41.3869 6.78434 41.2769 6.58545C41.1711 6.38232 41.0103 6.22575 40.7944 6.11572C40.5786 6.0057 40.312 5.95068 39.9946 5.95068C39.6984 5.95068 39.4382 6.00146 39.2139 6.10303C38.9938 6.20459 38.8203 6.33789 38.6934 6.50293C38.5706 6.66797 38.5093 6.8457 38.5093 7.03613H37.335C37.335 6.79069 37.3984 6.54736 37.5254 6.30615C37.6523 6.06494 37.8343 5.84701 38.0713 5.65234C38.3125 5.45345 38.6003 5.29688 38.9346 5.18262C39.2731 5.06413 39.6497 5.00488 40.0645 5.00488C40.5638 5.00488 41.0039 5.08952 41.3848 5.25879C41.7699 5.42806 42.0703 5.68408 42.2861 6.02686C42.5062 6.3654 42.6162 6.79069 42.6162 7.30273V10.502C42.6162 10.7305 42.6353 10.9738 42.6733 11.2319C42.7157 11.4901 42.777 11.7122 42.8574 11.8984V12H41.6323C41.5731 11.8646 41.5265 11.6847 41.4927 11.4604C41.4588 11.2319 41.4419 11.0203 41.4419 10.8257ZM41.645 7.83594L41.6577 8.66113H40.4707C40.1364 8.66113 39.8381 8.68864 39.5757 8.74365C39.3133 8.79443 39.0933 8.87272 38.9155 8.97852C38.7378 9.08431 38.6024 9.21761 38.5093 9.37842C38.4162 9.53499 38.3696 9.71908 38.3696 9.93066C38.3696 10.1465 38.4183 10.3433 38.5156 10.521C38.613 10.6987 38.759 10.8405 38.9536 10.9463C39.1525 11.0479 39.3958 11.0986 39.6836 11.0986C40.0433 11.0986 40.3607 11.0225 40.6357 10.8701C40.9108 10.7178 41.1287 10.5316 41.2896 10.3115C41.4546 10.0915 41.5435 9.87777 41.5562 9.67041L42.0576 10.2354C42.028 10.4131 41.9476 10.6099 41.8164 10.8257C41.6852 11.0415 41.5096 11.2489 41.2896 11.4478C41.0737 11.6424 40.8156 11.8053 40.5151 11.9365C40.2189 12.0635 39.8846 12.127 39.5122 12.127C39.0467 12.127 38.6383 12.036 38.2871 11.854C37.9401 11.672 37.6693 11.4287 37.4746 11.124C37.2842 10.8151 37.189 10.4702 37.189 10.0894C37.189 9.72119 37.2609 9.39746 37.4048 9.11816C37.5487 8.83464 37.756 8.59977 38.0269 8.41357C38.2977 8.22314 38.6235 8.07926 39.0044 7.98193C39.3853 7.8846 39.8105 7.83594 40.2803 7.83594H41.645ZM45.6313 6.49658V12H44.4507V5.13184H45.5679L45.6313 6.49658ZM45.3901 8.30566L44.8442 8.28662C44.8485 7.81689 44.9098 7.38314 45.0283 6.98535C45.1468 6.58333 45.3224 6.23421 45.5552 5.93799C45.7879 5.64176 46.0778 5.41325 46.4248 5.25244C46.7718 5.0874 47.1738 5.00488 47.6309 5.00488C47.9525 5.00488 48.2487 5.05143 48.5195 5.14453C48.7904 5.2334 49.0252 5.37516 49.2241 5.56982C49.423 5.76449 49.5775 6.01416 49.6875 6.31885C49.7975 6.62354 49.8525 6.9917 49.8525 7.42334V12H48.6782V7.48047C48.6782 7.12077 48.6169 6.83301 48.4941 6.61719C48.3757 6.40137 48.2064 6.24479 47.9863 6.14746C47.7663 6.0459 47.5081 5.99512 47.2119 5.99512C46.8649 5.99512 46.575 6.05648 46.3423 6.1792C46.1095 6.30192 45.9233 6.47119 45.7837 6.68701C45.644 6.90283 45.5425 7.15039 45.479 7.42969C45.4198 7.70475 45.3901 7.99674 45.3901 8.30566ZM49.8398 7.6582L49.0527 7.89941C49.057 7.52279 49.1183 7.16097 49.2368 6.81396C49.3595 6.46696 49.5352 6.15804 49.7637 5.88721C49.9964 5.61637 50.2821 5.40267 50.6206 5.24609C50.9591 5.08529 51.3464 5.00488 51.7822 5.00488C52.1504 5.00488 52.4762 5.05355 52.7598 5.15088C53.0475 5.24821 53.2887 5.39844 53.4834 5.60156C53.6823 5.80046 53.8325 6.05648 53.9341 6.36963C54.0356 6.68278 54.0864 7.05518 54.0864 7.48682V12H52.9058V7.47412C52.9058 7.08903 52.8444 6.79069 52.7217 6.5791C52.6032 6.36328 52.4339 6.21305 52.2139 6.12842C51.998 6.03955 51.7399 5.99512 51.4395 5.99512C51.1813 5.99512 50.9528 6.03955 50.7539 6.12842C50.555 6.21729 50.3879 6.34001 50.2524 6.49658C50.117 6.64893 50.0133 6.82454 49.9414 7.02344C49.8737 7.22233 49.8398 7.43392 49.8398 7.6582ZM58.7139 12.127C58.2357 12.127 57.8019 12.0465 57.4126 11.8857C57.0275 11.7207 56.6953 11.4901 56.416 11.1938C56.141 10.8976 55.9294 10.5464 55.7812 10.1401C55.6331 9.73389 55.5591 9.28955 55.5591 8.80713V8.54053C55.5591 7.98193 55.6416 7.4847 55.8066 7.04883C55.9717 6.60872 56.196 6.23633 56.4795 5.93164C56.763 5.62695 57.0846 5.39632 57.4443 5.23975C57.804 5.08317 58.1764 5.00488 58.5615 5.00488C59.0524 5.00488 59.4756 5.08952 59.8311 5.25879C60.1908 5.42806 60.4849 5.66504 60.7134 5.96973C60.9419 6.27018 61.1112 6.62565 61.2212 7.03613C61.3312 7.44238 61.3862 7.88672 61.3862 8.36914V8.896H56.2573V7.9375H60.2119V7.84863C60.195 7.54395 60.1315 7.24772 60.0215 6.95996C59.9157 6.6722 59.7464 6.43522 59.5137 6.24902C59.2809 6.06283 58.9635 5.96973 58.5615 5.96973C58.2949 5.96973 58.0495 6.02686 57.8252 6.14111C57.6009 6.25114 57.4084 6.41618 57.2476 6.63623C57.0868 6.85628 56.9619 7.125 56.873 7.44238C56.7842 7.75977 56.7397 8.12581 56.7397 8.54053V8.80713C56.7397 9.13298 56.7842 9.43978 56.873 9.72754C56.9661 10.0111 57.0994 10.2607 57.2729 10.4766C57.4507 10.6924 57.6644 10.8617 57.9141 10.9844C58.168 11.1071 58.4557 11.1685 58.7773 11.1685C59.1921 11.1685 59.5433 11.0838 59.8311 10.9146C60.1188 10.7453 60.3706 10.5189 60.5864 10.2354L61.2974 10.8003C61.1493 11.0246 60.9609 11.2383 60.7324 11.4414C60.5039 11.6445 60.2225 11.8096 59.8882 11.9365C59.5581 12.0635 59.1667 12.127 58.7139 12.127ZM63.9316 6.59814V12H62.7573V5.13184H63.8682L63.9316 6.59814ZM63.6523 8.30566L63.1636 8.28662C63.1678 7.81689 63.2376 7.38314 63.373 6.98535C63.5085 6.58333 63.6989 6.23421 63.9443 5.93799C64.1898 5.64176 64.4818 5.41325 64.8203 5.25244C65.1631 5.0874 65.5418 5.00488 65.9565 5.00488C66.2951 5.00488 66.5998 5.05143 66.8706 5.14453C67.1414 5.2334 67.3721 5.37728 67.5625 5.57617C67.7572 5.77507 67.9053 6.0332 68.0068 6.35059C68.1084 6.66374 68.1592 7.04671 68.1592 7.49951V12H66.9785V7.48682C66.9785 7.12712 66.9256 6.83936 66.8198 6.62354C66.714 6.40348 66.5596 6.24479 66.3564 6.14746C66.1533 6.0459 65.9036 5.99512 65.6074 5.99512C65.3154 5.99512 65.0488 6.05648 64.8076 6.1792C64.5706 6.30192 64.3654 6.47119 64.1919 6.68701C64.0226 6.90283 63.8893 7.15039 63.792 7.42969C63.6989 7.70475 63.6523 7.99674 63.6523 8.30566ZM72.8184 5.13184V6.0332H69.105V5.13184H72.8184ZM70.3618 3.4624H71.5361V10.2988C71.5361 10.5316 71.5721 10.7072 71.644 10.8257C71.716 10.9442 71.8091 11.0225 71.9233 11.0605C72.0376 11.0986 72.1603 11.1177 72.2915 11.1177C72.3888 11.1177 72.4904 11.1092 72.5962 11.0923C72.7062 11.0711 72.7887 11.0542 72.8438 11.0415L72.8501 12C72.757 12.0296 72.6343 12.0571 72.4819 12.0825C72.3338 12.1121 72.154 12.127 71.9424 12.127C71.6546 12.127 71.3901 12.0698 71.1489 11.9556C70.9077 11.8413 70.7152 11.6509 70.5713 11.3843C70.4316 11.1134 70.3618 10.7495 70.3618 10.2925V3.4624ZM73.7578 8.64209V8.49609C73.7578 8.00098 73.8298 7.54183 73.9736 7.11865C74.1175 6.69124 74.3249 6.32096 74.5957 6.00781C74.8665 5.69043 75.1945 5.44499 75.5796 5.27148C75.9647 5.09375 76.3963 5.00488 76.8745 5.00488C77.3569 5.00488 77.7907 5.09375 78.1758 5.27148C78.5651 5.44499 78.8952 5.69043 79.166 6.00781C79.4411 6.32096 79.6506 6.69124 79.7944 7.11865C79.9383 7.54183 80.0103 8.00098 80.0103 8.49609V8.64209C80.0103 9.13721 79.9383 9.59635 79.7944 10.0195C79.6506 10.4427 79.4411 10.813 79.166 11.1304C78.8952 11.4435 78.5672 11.689 78.1821 11.8667C77.8013 12.0402 77.3696 12.127 76.8872 12.127C76.4048 12.127 75.971 12.0402 75.5859 11.8667C75.2008 11.689 74.8708 11.4435 74.5957 11.1304C74.3249 10.813 74.1175 10.4427 73.9736 10.0195C73.8298 9.59635 73.7578 9.13721 73.7578 8.64209ZM74.9321 8.49609V8.64209C74.9321 8.98486 74.9723 9.30859 75.0527 9.61328C75.1331 9.91374 75.2537 10.1803 75.4146 10.4131C75.5796 10.6458 75.7848 10.8299 76.0303 10.9653C76.2757 11.0965 76.5614 11.1621 76.8872 11.1621C77.2088 11.1621 77.4902 11.0965 77.7314 10.9653C77.9769 10.8299 78.18 10.6458 78.3408 10.4131C78.5016 10.1803 78.6222 9.91374 78.7026 9.61328C78.7873 9.30859 78.8296 8.98486 78.8296 8.64209V8.49609C78.8296 8.15755 78.7873 7.83805 78.7026 7.5376C78.6222 7.23291 78.4995 6.96419 78.3345 6.73145C78.1737 6.49447 77.9705 6.30827 77.7251 6.17285C77.4839 6.03743 77.2004 5.96973 76.8745 5.96973C76.5529 5.96973 76.2694 6.03743 76.0239 6.17285C75.7827 6.30827 75.5796 6.49447 75.4146 6.73145C75.2537 6.96419 75.1331 7.23291 75.0527 7.5376C74.9723 7.83805 74.9321 8.15755 74.9321 8.49609Z" fill="white"/>
<path d="M87.418 7.04248V8.14697H81.083V7.04248H87.418ZM84.8408 4.34473V11.0732H83.6665V4.34473H84.8408Z" fill="#0AD1E3"/>
</svg>
