<svg width="54" height="54" viewBox="0 0 54 54" fill="none" xmlns="http://www.w3.org/2000/svg">
<path d="M50.625 28.6875V42.1875C50.625 42.6351 50.4472 43.0643 50.1307 43.3807C49.8143 43.6972 49.385 43.875 48.9375 43.875H35.4375C34.9899 43.875 34.5607 43.6972 34.2442 43.3807C33.9278 43.0643 33.75 42.6351 33.75 42.1875C33.75 41.7399 33.9278 41.3107 34.2442 40.9943C34.5607 40.6778 34.9899 40.5 35.4375 40.5H44.8643L28.6875 24.3232L21.4439 31.5689C21.2872 31.7258 21.1011 31.8503 20.8962 31.9352C20.6913 32.0201 20.4718 32.0638 20.25 32.0638C20.0282 32.0638 19.8086 32.0201 19.6038 31.9352C19.3989 31.8503 19.2128 31.7258 19.0561 31.5689L3.86859 16.3814C3.55194 16.0648 3.37405 15.6353 3.37405 15.1875C3.37405 14.7397 3.55194 14.3102 3.86859 13.9936C4.18523 13.6769 4.61469 13.4991 5.06249 13.4991C5.51029 13.4991 5.93975 13.6769 6.2564 13.9936L20.25 27.9893L27.4936 20.7436C27.6503 20.5867 27.8364 20.4622 28.0413 20.3773C28.2461 20.2924 28.4657 20.2487 28.6875 20.2487C28.9093 20.2487 29.1288 20.2924 29.3337 20.3773C29.5386 20.4622 29.7247 20.5867 29.8814 20.7436L47.25 38.1143V28.6875C47.25 28.2399 47.4278 27.8107 47.7443 27.4943C48.0607 27.1778 48.4899 27 48.9375 27C49.385 27 49.8143 27.1778 50.1307 27.4943C50.4472 27.8107 50.625 28.2399 50.625 28.6875Z" fill="#EB5B64"/>
</svg>
